<svg id="Layer_1" data-name="Layer 1" xmlns="http://www.w3.org/2000/svg" viewBox="0 0 1920 154"><defs><style>.cls-1{font-size:72px;font-family:CourierNewPSMT, Courier New;}</style></defs><title>Artboard 1</title><path d="M-5,115.17a250.94,250.94,0,0,1,65.72.59,1.53,1.53,0,0,0,1.9-1.45l.14-57.19.08-30.5,0-7.62q1.44-2.69,4.23-.24c3.62.29,7.42,1.88,11.08,2.41,2.74.4,5.86.11,8.47.78q3.61-1.24,4.85,2.18l-.27,7.47-1,28-2.08,57.86a1.51,1.51,0,0,0,1.5,1.5,301.6,301.6,0,0,1,81,8,1.52,1.52,0,0,0,1.9-1.45l2.1-60.23,1-30.12.52-15.06c.27-7.65-.25-14.58,10.34-11.74,20.85,5.59,12,43.4,10.92,59.12l-4.09,61.19a1.51,1.51,0,0,0,1.9,1.45,241.39,241.39,0,0,1,81-5,1.52,1.52,0,0,0,1.5-1.5l2.7-67c.44-10.95-.32-22.69,1.35-33.5,1.23-8,6.49-6,13.59-6L312,16.93c2.9,0,14.66-1.78,16.64-.12,2.95,2.47-.55,10.94-1.19,14.19q-3,15.36-5.15,30.88a543.09,543.09,0,0,0-4.85,65.84,1.52,1.52,0,0,0,1.5,1.5l62.23,1.48a1.54,1.54,0,0,0,1.5-1.5L390,57.85c1.2-11.65,1.21-24.25,3.67-35.68,1.26-5.89,5.51-4.55,10.48-2.25a26.26,26.26,0,0,1,10,9c23.61,33.67-13.4,70.51-4.72,106.27a1.52,1.52,0,0,0,1.85,1A245.82,245.82,0,0,1,498.86,127a1.53,1.53,0,0,0,1.5-1.5l4.55-62.95L506,47.3c.33-4.51-.41-11,1.1-15.26,2-5.49,6.83-3.51,12.07-3l16.91,1.52c3.15.28,12.65-.53,15,1.35,3.34,2.64.72,9.55.18,13.27l-4.25,29.66-9,63a1.52,1.52,0,0,0,1.45,1.9,850.24,850.24,0,0,0,123.2-11.92,1.52,1.52,0,0,0,1.1-1.45l3.59-53.48,1.8-26.74c.25-3.79.27-7.69.77-11.46.83-6.18,1.44-6.37,7.25-6.75,26.66-1.73,58-2.12,80.15,15.14,21.59,16.81,21.91,46.9,40.63,65.71,16.17,16.25,39.8,16.4,60.34,9.42,25.3-8.59,44.39-25.64,63.53-43.51C942.49,55.39,967.11,32.76,997,31.34c47.79-2.26,70.59,49.71,102.16,76.18,14,11.73,31,19.26,49.5,17.58,17.12-1.56,32.33-10.44,45.69-20.73,29.42-22.65,57.2-63.24,97-66.93,42.93-4,65.84,40.29,87,69.89,9.67,13.53,20.52,27.47,35.39,35.58,17,9.27,36.9,8.18,53.64-1.24,23.56-13.25,37.59-37,56.58-55.34,11.36-11,25.16-21.27,41-24.44,5.86-1.18,19.39-2.95,22.77,3.54,2.69,5.19,2.09,14.41,3.39,20.31,5.15,23.24,18.92,47.14,44.8,50.41,24.91,3.15,32.7-20.31,51.26-30.66,10-5.58,13.34,4.73,17.6,12.17l12.66,22.12a1.52,1.52,0,0,0,2.36.3l11.94-11.19c2.43-2.28,9.93-11.35,13.2-11.09,3.49.28,8.16,9.33,10.17,12l11.14,14.92a1.53,1.53,0,0,0,2.59,0c7-10.32,26.11-29.82,38.27-15.72a1.51,1.51,0,0,0,2.12,0c3.08-3.22,10.25-14,14.58-12.67,1.78.55,4.95,8.48,5.78,9.92l5.78,9.92a1.52,1.52,0,0,0,2.05.54l28.14-17.63,14.07-8.81c2.56-1.61,10-8.12,13-6.72,1.21.57,3.41,8.11,3.91,9.19q3,6.55,6.64,12.79a170.88,170.88,0,0,0,15.83,22.66c1.22,1.5,3.33-.64,2.12-2.12a164.54,164.54,0,0,1-26.74-46.32,1.52,1.52,0,0,0-2.2-.9l-37.53,23.51c-4.21,2.63-13.73,11.22-18.64,9-1.82-.83-3.86-6.62-4.82-8.27l-6.75-11.57a1.51,1.51,0,0,0-2.36-.3c-3.32,3.47-6.52,7.14-10,10.45-1.14,1.08-2.57,3.43-4.41,3.45-.62,0-1.33-1.41-2-1.63-4.41-1.52-7.13-2.94-12.06-1.93-11.52,2.35-21.1,12.33-27.43,21.66h2.59l-22.28-29.83a1.53,1.53,0,0,0-2.36-.3l-13.27,12.43c-3.69,3.46-9.44,12.19-13.63,8-3.81-3.82-6.36-11.11-9-15.8l-9.95-17.38a1.47,1.47,0,0,0-1.3-.74c-23.79,2.1-31,33-55.46,33.85-37.83,1.3-47.45-42.47-51.28-71.32a1.59,1.59,0,0,0-1.1-1.45c-46.49-15.68-76.37,37.75-104.42,64.11-16.2,15.22-37.42,26.46-60,19.54-14.74-4.52-26.07-15.78-35.5-27.5-19.24-23.89-33-54.47-59.11-72-24.68-16.59-52.92-11.37-76.28,4.7-26.62,18.31-46.74,44.87-74.52,61.6-14.92,9-32,13.82-49.32,9.65s-31.06-16.36-42.9-29.12c-21.3-23-40.81-54.54-73.51-61.87C970.12,20.05,935.39,58.35,906.8,84.7c-19.13,17.64-44.68,34-71.48,35-13.64.51-26.77-4-36.23-14.05C790.26,96.24,786,83.71,781,72.08c-8.57-20-20.71-34.69-41.72-41.93-22.4-7.72-47.1-6.48-70.34-4.63a1.54,1.54,0,0,0-1.5,1.5L662,107.23c-.45,6.71,1.3,15.83-5.71,18.59-5.87,2.3-14.08,2.24-20.34,3.12q-21.11,3-42.35,4.81-19.57,1.71-39.21,2.49c-2.91.12-6.57.95-9.35.31-4.25-1-3-1.56-3.1-5.37-.1-6.57,2-13.88,2.92-20.39l11.43-79.7a1.53,1.53,0,0,0-1.45-1.9L506,24.82a1.52,1.52,0,0,0-1.5,1.5l-3.86,53.41L499,102.62,498,116c-.44,6.12-.21,7-6.29,7.56-7.54.7-15.51-.41-23.12-.07q-10,.45-19.89,1.73a240.06,240.06,0,0,0-24.49,4.43c-1.83.43-8.55,3.07-10.32,2.68-4.72-1.06-3.25-8.07-3.14-11.83.77-25.45,18.06-47.94,13.5-73.87C421.46,30.4,411,14,392.76,15a1.55,1.55,0,0,0-1.5,1.5L384.12,86c-1.16,11.24-.54,24.84-3.67,35.68-1.08,3.76-.28,4.91-4.76,5.88-2.15.47-5.11-.12-7.32-.17l-18.3-.44-16.47-.39c-5.34-.13-11.66,1.59-13.05-4.34-1.09-4.67.35-11.59.6-16.45q.48-9.13,1.28-18.25a538.07,538.07,0,0,1,11.36-71.85,1.52,1.52,0,0,0-1.45-1.9l-51.77.36a1.53,1.53,0,0,0-1.5,1.5l-2.7,67c-.43,10.77.64,22.93-1.35,33.5-.52,2.76.91,3.89-2.34,5.57-.85.44-5.7-.49-7.1-.59q-8.89-.59-17.81-.52a235,235,0,0,0-28.82,2c-4.71.63-9.4,1.38-14.06,2.29.16,0-6.57,1.75-7,1.47-2.56-1.84-1-6.1-.82-8.87l4.46-66.75c.9-13.51,4.93-33.79-8.4-42.91-4.09-2.79-9.7-4.39-14.56-2.8-6.45,2.12-5.08,5.1-5.29,11.25l-2.36,67.76c-.38,11,.68,23.09-1.18,33.88-.4,2.34.82,3.86-1.83,5.26-.61.32-5.77-1.28-7-1.52q-8.73-1.79-17.56-3.06A294.12,294.12,0,0,0,111,115.85c-3-.1-15.46,1.68-17.84,0-3.72-2.67-1.55-12.81-1.39-17l2.82-78.4a1.51,1.51,0,0,0-1.5-1.5,81.66,81.66,0,0,1-31.36-5.16,1.51,1.51,0,0,0-1.9,1.45l-.21,83.87c0,3.9,1.67,11.31-2.19,13.23-1.33.66-9.42-1.07-11-1.21q-5.51-.48-11-.7A250.59,250.59,0,0,0-5,112.17c-1.89.23-1.92,3.23,0,3Z"/><text class="cls-1" transform="translate(9 101.8)">P</text><text class="cls-1" transform="translate(110 101.8)">E</text><text class="cls-1" transform="translate(218 101.8)">T</text><text class="cls-1" transform="translate(332 101.8)">R</text><text class="cls-1" transform="translate(437 101.8)">I</text><text class="cls-1" transform="translate(583 101.8)">C</text><text class="cls-1" transform="translate(693 101.8)">H</text><text class="cls-1" transform="translate(815 101.8)">O</text><text class="cls-1" transform="translate(980 101.8)">R</text><text class="cls-1" transform="translate(1127 101.8)">D</text><text class="cls-1" transform="translate(1273 101.8)">S</text></svg>